<svg xmlns="http://www.w3.org/2000/svg" viewBox="255 293 539 140" fill="none">
  <path d="M255.222 385.861 304.199 383.375c1.061 6.446 3.22 11.358 6.478 14.734 5.303 5.465 12.879 8.197 22.728 8.197 7.348 0 13.011-1.397 16.988-4.19 3.977-2.794 5.966-6.032 5.966-9.716 0-3.5-1.894-6.631-5.682-9.394-3.788-2.763-12.576-5.372-26.364-7.828-22.576-4.113-38.674-9.577-48.295-16.392-9.697-6.815-14.546-15.502-14.546-26.062 0-6.938 2.481-13.491 7.443-19.662 4.962-6.17 12.424-11.02 22.386-14.55 9.962-3.53 23.617-5.295 40.966-5.295 21.288 0 37.519 3.208 48.693 9.624 11.174 6.416 17.822 16.622 19.943 30.621l-48.523 2.302c-1.288-6.078-3.996-10.498-8.125-13.261-4.129-2.763-9.83-4.144-17.103-4.144-5.984 0-10.492 1.028-13.522 3.085-3.03 2.056-4.545 4.558-4.545 7.505 0 2.149 1.25 4.083 3.75 5.802 2.424 1.78 8.182 3.438 17.273 4.973 22.5 3.93 38.617 7.905 48.352 11.926 9.735 4.022 16.818 9.01 21.25 14.965 4.432 5.956 6.648 12.617 6.648 19.984 0 8.657-2.954 16.638-8.863 23.944-5.909 7.306-14.167 12.847-24.773 16.623-10.606 3.776-23.977 5.664-40.113 5.664-28.333 0-47.954-4.42-58.863-13.261-10.909-8.841-17.083-20.076-18.522-33.706Z" fill="#287CAB"/>
  <path d="M434.578 295.519h43.304v135.007h-43.304z" fill="#287CAB"/>
  <path d="M517.881 295.519h43.209v101.762h67.436v33.245H517.881Z" fill="#287CAB"/>
  <path d="M639.4 363.115c0-22.041 6.359-39.201 19.077-51.48 12.718-12.28 30.427-18.419 53.129-18.419 23.274 0 41.206 6.032 53.796 18.096 12.591 12.064 18.886 28.963 18.886 50.697 0 15.778-2.75 28.717-8.251 38.817-5.5 10.099-13.449 17.958-23.846 23.575-10.397 5.618-23.353 8.427-38.869 8.427-15.77 0-28.822-2.425-39.155-7.275-10.333-4.85-18.711-12.525-25.133-23.023-6.423-10.499-9.634-23.637-9.634-39.416Zm43.209.184c0 13.63 2.623 23.422 7.869 29.377 5.246 5.956 12.384 8.934 21.413 8.934 9.284 0 16.47-2.916 21.557-8.749 5.087-5.833 7.631-16.301 7.631-31.403 0-12.709-2.655-21.995-7.965-27.858-5.31-5.863-12.511-8.795-21.604-8.795-8.712 0-15.707 2.978-20.985 8.933-5.278 5.956-7.916 15.81-7.916 29.561Z" fill="#287CAB"/>
</svg>
